HIERARCHY
ROOT Hips
{
  OFFSET 267.745 86.9975 -272.335
  CHANNELS 6 Xposition Yposition Zposition Zrotation Xrotation Yrotation
  JOINT LeftUpLeg
  {
    OFFSET 8.64259 1.95398 -2.38835
    CHANNELS 3 Zrotation Xrotation Yrotation
    JOINT LeftLeg
    {
      OFFSET 43.7702 0 0
      CHANNELS 3 Zrotation Xrotation Yrotation
      JOINT LeftFoot
      {
        OFFSET 40.6238 0 0
        CHANNELS 3 Zrotation Xrotation Yrotation
        JOINT LeftToeBase
        {
          OFFSET 12.7242 0 0
          CHANNELS 3 Zrotation Xrotation Yrotation
          End Site
          {
            OFFSET 0 0 0
          }
        }
      }
    }
  }
  JOINT RightUpLeg
  {
    OFFSET -8.2249 1.95398 -2.59336
    CHANNELS 3 Zrotation Xrotation Yrotation
    JOINT RightLeg
    {
      OFFSET 43.5653 0 0
      CHANNELS 3 Zrotation Xrotation Yrotation
      JOINT RightFoot
      {
        OFFSET 40.6238 0 0
        CHANNELS 3 Zrotation Xrotation Yrotation
        JOINT RightToeBase
        {
          OFFSET 12.7242 0 0
          CHANNELS 3 Zrotation Xrotation Yrotation
          End Site
          {
            OFFSET 0 0 0
          }
        }
      }
    }
  }
  JOINT Spine
  {
    OFFSET 0.165834 0.87714 6.61349
    CHANNELS 3 Zrotation Xrotation Yrotation
    JOINT Spine1
    {
      OFFSET 7.38963 1.71661e-005 0
      CHANNELS 3 Zrotation Xrotation Yrotation
      JOINT Spine2
      {
        OFFSET 11.9445 1.14441e-005 0
        CHANNELS 3 Zrotation Xrotation Yrotation
        JOINT Spine3
        {
          OFFSET 14.7254 4.19617e-005 0
          CHANNELS 3 Zrotation Xrotation Yrotation
          JOINT Spine4
          {
            OFFSET 10.9679 0 0
            CHANNELS 3 Zrotation Xrotation Yrotation
            JOINT RightShoulder
            {
              OFFSET 2.46616 -1.6653 3.69651
              CHANNELS 3 Zrotation Xrotation Yrotation
              JOINT RightArm
              {
                OFFSET 13.0012 0 0
                CHANNELS 3 Zrotation Xrotation Yrotation
                JOINT RightForeArm
                {
                  OFFSET 28.7848 1.52588e-005 0
                  CHANNELS 3 Zrotation Xrotation Yrotation
                  JOINT RightHand
                  {
                    OFFSET 26.5688 1.52588e-005 0
                    CHANNELS 3 Zrotation Xrotation Yrotation
                    End Site
                    {
                      OFFSET 0 0 0
                    }
                  }
                }
              }
            }
            JOINT LeftShoulder
            {
              OFFSET 2.38034 -1.29275 -3.7523
              CHANNELS 3 Zrotation Xrotation Yrotation
              JOINT LeftArm
              {
                OFFSET 16.3182 6.10352e-005 0
                CHANNELS 3 Zrotation Xrotation Yrotation
                JOINT LeftForeArm
                {
                  OFFSET 27.0901 0 0
                  CHANNELS 3 Zrotation Xrotation Yrotation
                  JOINT LeftHand
                  {
                    OFFSET 24.5451 1.52588e-005 0
                    CHANNELS 3 Zrotation Xrotation Yrotation
                    End Site
                    {
                      OFFSET 0 0 0
                    }
                  }
                }
              }
            }
            JOINT Neck
            {
              OFFSET 5.0226 -0.0266342 0
              CHANNELS 3 Zrotation Xrotation Yrotation
              JOINT Head
              {
                OFFSET 6.69364 2.86102e-005 0
                CHANNELS 3 Zrotation Xrotation Yrotation
                End Site
                {
                  OFFSET 0 0 0
                }
              }
            }
          }
        }
      }
    }
  }
}
MOTION
Frames:	15
Frame Time:	0.0416667
-141.361 91.1912 134.591 98.0778 49.5936 83.2955 179.483 16.5156 85.5615 -36.1645 22.2044 5.04137 63.4273 4.67701 15.9774 42.3687 -1.52523 -2.40584 170.668 12.7514 82.9901 -90.4608 -20.2635 -2.33328 43.3797 12.1572 14.2735 55.9317 -5.49454 7.71684 0.215061 8.29265 -89.7897 10.2889 0.524758 0.374181 -1.38202 0.540716 0.350714 -23.9173 0.388039 0.514589 -3.90469 0.388039 0.514586 99.5511 -56.849 -85.9269 26.6302 -4.51742 -5.03928 2.44861 -13.9309 -9.64271 -8.52045 -0.347523 -0.365262 -87.0221 -53.5127 83.5017 -24.1477 -2.27131 -25.0364 -2.38146 35.7742 -0.754377 3.03117 -0.264215 -8.29153 -0.304894 -1.19789 -3.76348 -14.9994 -1.46297 8.1895 
-136.827 92.3083 129.399 100.256 49.8974 84.3236 -178.747 9.22675 88.178 -34.5001 24.3891 5.73939 65.888 7.34565 17.781 43.6088 -1.68182 -1.77211 169.375 24.5847 88.5259 -100.586 -18.4599 -2.22444 48.5534 8.53557 11.2066 60.7902 -5.92791 9.98271 -0.00499006 8.13453 -90.0844 10.605 -0.0486929 -0.162939 -1.06599 -0.0558274 -0.160645 -23.6011 0.00250437 -0.170043 -3.58846 0.00253397 -0.170037 99.3143 -56.8565 -86.2664 27.6107 -2.27171 -3.13951 2.74846 -11.9681 -8.98516 -11.1914 -0.392951 -1.15052 -86.622 -52.4959 83.9325 -22.8797 1.56299 -26.5321 0.689415 28.7608 -9.64992 6.14231 -0.456019 -9.19401 -2.77901 -0.190711 -5.4908 -16.2718 -0.498227 8.77179 
-132.592 92.8987 124.601 101.937 49.8577 84.5362 -176.928 2.38148 90.3624 -31.7841 26.4592 5.87876 67.1568 9.36004 18.9486 45.3421 -1.85937 -0.337507 168.528 32.5627 91.4675 -92.4055 -15.7114 -1.41012 56.5324 5.71569 16.3082 52.3711 -4.82428 7.99317 -0.242212 8.07672 -90.2495 10.7191 -0.597285 -0.441196 -0.951738 -0.616108 -0.414491 -23.487 -0.437092 -0.600313 -3.47432 -0.437069 -0.600308 99.1396 -56.5837 -86.531 28.1125 -0.0183854 -1.5289 2.45774 -11.4426 -8.65789 -11.5646 -0.434488 -0.84389 -86.1891 -52.4855 84.5663 -20.1169 4.67652 -28.3661 4.52323 25.7021 -20.2889 6.00778 -0.562799 -10.8096 -2.5755 0.770112 -6.74648 -16.9475 0.405547 10.1785 
-128.373 93.3525 120.037 102.285 51.0411 85.6975 -174.723 -2.10758 93.6429 -29.7925 30.1945 6.00599 67.0376 9.87218 18.8065 47.2224 -1.95718 2.30844 169.05 32.948 92.2735 -65.6927 -13.9027 1.79269 59.0819 5.06776 16.7621 53.2603 -5.37453 5.1372 -0.353647 8.03046 -90.4607 10.8085 -0.916809 -0.831012 -0.862389 -0.952478 -0.789865 -23.3968 -0.624696 -1.06812 -3.38412 -0.624692 -1.06812 99.4678 -57.4289 -86.0205 27.0329 2.14924 -0.693623 2.57154 -10.0099 -7.97704 -11.9983 -0.476884 -0.579982 -86.1445 -53.2167 84.7344 -17.691 7.5008 -31.8883 9.18919 27.3342 -28.5471 4.08338 -0.307464 -8.24368 -1.98496 0.635168 -6.96805 -16.3684 0.33931 10.5897 
-123.8 93.6359 115.347 101.094 53.4758 84.5632 -174.204 -6.57175 93.0881 -26.6172 31.272 5.79341 65.1982 7.61559 14.9225 50.2775 -2.2056 2.714 174.207 26.9933 88.0658 -29.1582 -6.86534 2.13707 54.1741 7.44286 15.9163 36.2827 -1.54681 -2.13633 -0.497899 7.87042 -90.2874 11.1316 -1.12449 -0.463803 -0.538912 -1.14381 -0.413867 -23.0764 -0.933103 -0.780332 -3.06375 -0.933109 -0.780338 99.7194 -57.2022 -85.6705 27.0775 2.30093 0.803556 2.88641 -9.74642 -6.89031 -11.7945 -0.418842 -1.12372 -86.3429 -52.6108 84.3578 -18.7005 9.25707 -35.0006 11.7443 28.7529 -31.4537 2.43474 -0.311399 -9.86732 -1.41737 -0.116225 -7.13607 -16.8347 -0.323907 9.95974 
-118.525 93.2533 110.392 102.636 56.243 82.6317 -173.911 -10.6076 94.5192 -27.8289 32.3147 7.46898 64.9518 6.72088 9.86371 52.9778 -2.25062 4.59135 176.645 21.9838 86.6374 -14.0758 2.04959 0.491844 55.9595 8.61767 22.2001 29.7994 0.159709 -5.26944 -0.731751 7.87825 -90.2932 11.115 -1.59264 -0.429573 -0.55499 -1.60999 -0.359067 -23.0959 -1.38989 -0.888453 -3.08322 -1.38988 -0.888445 100.605 -56.6312 -84.4185 27.8313 3.34931 2.41855 2.17369 -10.388 -7.58246 -10.3507 -0.300224 -1.85754 -86.2861 -51.5077 84.2825 -20.0302 10.7728 -35.241 9.26948 25.3805 -30.7972 0.582375 -0.292161 -12.0921 -1.08765 -0.415173 -7.14864 -17.233 -0.636192 9.97078 
-111.973 92.3041 104.84 103.784 57.2024 81.8567 -175.443 -11.7503 96.2937 -35.0017 31.7354 9.46575 59.9654 1.63465 2.79097 60.3405 -2.93304 3.70703 176.292 21.3582 88.1471 -19.3339 -3.75826 1.18311 52.4302 9.65079 16.8969 25.8946 1.18113 -3.90065 -0.971714 7.85338 -90.5073 11.1602 -2.1697 -0.797962 -0.509101 -2.20269 -0.701669 -23.0533 -1.82957 -1.41329 -3.04069 -1.82955 -1.4133 101.291 -56.7062 -83.4297 26.8705 3.87898 3.30483 2.02039 -10.9724 -8.32691 -12.2517 -0.544993 -0.0129233 -86.0114 -50.4076 84.5329 -22.9897 11.2486 -31.3826 -1.3434 13.8839 -21.2926 -0.297875 -0.265999 -14.0387 -0.303301 0.219001 -5.93806 -18.4391 -0.341975 10.8373 
-105.396 91.5009 99.1137 102.993 55.9698 84.4307 -178.45 -7.23619 98.1201 -45.8497 23.8421 8.98458 45.7258 -7.50201 -8.29214 61.8574 -4.90655 -6.124 176.189 23.0931 91.1098 -30.9296 -9.00192 2.11243 54.5858 9.00488 12.2049 27.4333 0.16898 1.79021 -0.97683 7.76469 -90.9031 11.3268 -2.36464 -1.56239 -0.342857 -2.4311 -1.45678 -22.8814 -1.78588 -2.20078 -2.86878 -1.78587 -2.20078 101.005 -56.4278 -83.847 26.3005 4.98779 3.23343 1.83753 -11.6207 -7.8516 -12.2744 -0.734895 1.82899 -85.9041 -51.0088 84.7799 -27.076 7.77916 -24.4528 -2.56105 18.1841 -12.1654 -3.32245 0.000657664 -14.3467 0.456282 1.0949 -5.31933 -18.854 0.362792 11.4195 
-99.4353 91.846 93.8846 103.583 54.993 84.385 176.901 2.10862 95.6162 -62.2768 21.0144 7.97396 46.6972 -6.20013 -1.19882 59.4236 -2.17281 7.62387 175.755 20.3299 92.5838 -37.502 -6.83881 2.29195 62.7844 6.25052 14.4735 22.1195 1.64229 0.139827 -0.716072 7.86155 -91.0745 11.1297 -1.92393 -1.94902 -0.541134 -2.00782 -1.86247 -23.07 -1.24944 -2.43693 -3.05738 -1.24943 -2.43693 100.992 -56.0013 -83.874 26.36 4.53812 1.08486 2.14147 -10.7542 -7.82632 -13.5283 -0.829266 2.01188 -86.0175 -51.8311 84.7264 -31.2036 2.091 -22.4439 -3.17815 34.5431 -1.62015 0.976682 -0.290898 -11.2204 1.561 0.628635 -5.43329 -18.5377 0.158535 10.1557 
-93.551 93.2883 88.7629 103.535 51.9759 82.4316 178.188 11.2154 91.9396 -64.8935 13.0014 5.23462 54.7675 0.322831 4.39638 59.8326 -1.98536 9.51939 176.674 14.7562 92.2412 -37.4349 -8.11477 0.490147 66.436 4.68021 14.0282 24.7044 0.749001 2.10677 -0.219766 7.89082 -90.8507 11.0846 -0.83235 -1.61413 -0.587094 -0.902578 -1.57595 -23.1146 -0.308847 -1.7896 -3.10194 -0.308835 -1.78959 100.677 -55.7296 -84.3374 26.2279 2.25938 -1.04655 2.09854 -10.2849 -11.13 -17.063 -1.0958 2.27593 -86.2587 -52.7366 84.4999 -32.2488 -2.74288 -18.5029 -2.10788 40.7235 0.11697 2.85825 -0.333149 -9.65027 0.218368 -0.0473409 -5.58053 -18.5355 -0.420089 9.12614 
-88.0914 94.4501 83.7789 102.635 49.83 81.3634 -179.639 16.9293 88.1529 -53.5721 10.664 3.07963 58.0815 3.31825 6.5827 59.6025 -1.64987 11.6226 176.626 8.7683 91.1161 -35.1553 -8.16679 -0.62772 69.9274 3.87312 16.0796 24.0506 0.83154 2.61361 0.0909476 7.78926 -90.6142 11.2932 -0.104978 -1.21254 -0.378296 -0.158231 -1.20674 -22.909 0.264277 -1.18803 -2.8964 0.264258 -1.18804 100.72 -55.3248 -84.2851 25.8556 -1.03978 -1.8985 0.780187 -9.4696 -18.8754 -19.3371 -1.25678 2.35862 -85.9917 -53.2592 84.9625 -30.3431 -5.03328 -11.8994 -2.18885 40.9251 -0.00273172 -2.08568 -0.103679 -9.62283 -0.676823 -0.451602 -5.60131 -18.4133 -0.824571 8.90208 
-83.2087 94.9111 78.9425 102.038 49.1195 81.5582 -177.854 17.2115 86.7098 -29.1987 10.726 0.747909 55.3896 1.4438 5.82384 60.9522 -1.95686 9.8429 175.9 2.47862 90.1228 -31.4451 -6.38781 -0.638417 73.7258 3.07925 19.6535 20.5497 1.63061 2.5998 0.203765 7.79791 -90.5975 11.2772 0.127345 -1.20241 -0.394297 0.0742889 -1.20685 -22.9256 0.482799 -1.10857 -2.91291 0.482806 -1.10857 100.561 -54.9882 -84.527 24.3278 -4.1883 -3.83205 -2.75693 -10.3811 -28.3174 -18.5443 -1.06725 1.48932 -85.9513 -53.7305 85.0855 -29.1436 -4.50407 -7.21365 -3.35823 47.8658 -0.00195007 -1.40128 -0.136307 -9.77687 0.185202 -0.365612 -4.41955 -18.0023 -0.67406 7.6332 
-78.1133 94.6974 73.9214 100.862 47.7987 83.3147 -177.416 15.8212 86.8681 -6.45646 8.23065 -0.201945 55.4836 -0.198578 3.90037 60.4844 -2.0017 9.36843 175.504 -2.77681 91.2431 -28.9383 -7.36213 -0.477822 74.4293 2.08323 20.2662 24.264 0.846505 1.95679 0.328703 7.74718 -90.6448 11.38 0.353313 -1.31944 -0.291584 0.29492 -1.33373 -22.8228 0.733501 -1.15229 -2.81019 0.733513 -1.1523 100.596 -55.5467 -84.4604 20.785 -8.60461 -6.85956 -5.86175 -9.54811 -36.2871 -14.9851 -0.669646 -0.0342608 -85.07 -53.316 86.3123 -29.6754 -5.45469 -3.87726 -2.96338 47.2316 -0.0011428 -3.29717 -0.0527588 -9.24439 1.37329 -0.219312 -4.57477 -18.9863 -0.558119 7.86985 
-72.7675 93.8318 68.6912 100.566 46.38 84.5375 -177.67 18.8578 87.8962 -6.7635 8.1848 0.0978861 56.9811 -1.21349 4.04794 52.7261 -1.84116 9.11568 175.669 -6.77648 91.5479 -29.8673 -9.28468 -0.925359 71.5991 2.56332 20.3365 33.5782 -1.35382 3.68595 0.459622 7.67923 -90.6406 11.5165 0.614891 -1.33835 -0.155022 0.5554 -1.36412 -22.6873 0.988655 -1.09173 -2.67465 0.988668 -1.09173 100.832 -55.776 -84.1118 19.5109 -9.91249 -8.91752 -9.76135 -10.5755 -41.1617 -12.1129 -0.39882 -1.40234 -84.3234 -53.5377 87.4253 -29.2621 -7.08664 -2.5813 -2.10445 42.849 -0.000691176 -4.5947 0.00842413 -9.41937 1.00974 -0.0603473 -4.91315 -18.6712 -0.408636 8.35796 
-66.5585 93.005 62.6317 99.9371 45.9224 84.3684 -178.721 18.8114 86.835 -12.3118 15.5488 0.604128 51.0609 -3.97027 8.9451 48.1161 -1.84062 5.96354 175.891 -9.44857 90.6301 -32.176 -11.42 -1.88554 63.6126 5.76122 22.4369 43.5795 -3.22084 9.45536 0.565001 7.48444 -90.3027 11.9081 0.980881 -0.709104 0.237257 0.948695 -0.751583 -22.3003 1.14863 -0.381502 -2.28764 1.14864 -0.381508 101.271 -56.4421 -83.4627 21.2871 -10.0279 -6.65213 -9.89405 -9.35683 -43.3093 -13.258 -0.421598 -1.53242 -84.3295 -53.0796 87.3666 -28.2478 -8.11749 -4.3179 -1.4437 41.9037 -0.000725389 -4.46139 0.0108949 -9.92824 2.32147 -0.507925 -4.85897 -21.06 -0.624251 5.99638 
